<svg xmlns="http://www.w3.org/2000/svg" width="500" height="400" viewBox="0 0 804.473 781.847">
    <g id="Group_6" data-name="Group 6" transform="translate(0 0)">
        <path id="Path_2" data-name="Path 2" d="M954.619,274.869A380.7,380.7,0,0,0,929.6,235.6Q920,222.38,909.31,210.039h-.018a383.42,383.42,0,0,0-41.94-41.512q-4.613-3.918-9.351-7.675A380.924,380.924,0,0,0,764.121,106l.3,49.327,3.23,562.3H487.686L471.941,156.384l1.173-48.54C335.856,165.572,239.481,301.3,239.481,459.546a381.689,381.689,0,0,0,12.4,96.8,375.143,375.143,0,0,0,12.649,39.408q2.674,7.02,5.642,13.914c.954,2.237,1.925,4.457,2.933,6.668,1.292,2.888,2.638,5.767,4.02,8.611q1.6,3.356,3.3,6.668,2.179,4.346,4.5,8.62c1.194,2.237,2.424,4.457,3.672,6.667a382.936,382.936,0,0,0,76.151,95.244q12.956,11.753,26.964,22.284a381.449,381.449,0,0,0,458.3,0q7.621-5.723,14.931-11.829,4.854-4.038,9.547-8.227c.829-.74,1.658-1.48,2.478-2.228a382.979,382.979,0,0,0,71.364-87.008,374.266,374.266,0,0,0,19.325-36.689q2.286-4.974,4.43-10.037a376.125,376.125,0,0,0,16.562-47.591q1.03-3.757,1.988-7.541v-.009c.107-.437.223-.883.33-1.319.66-2.656,1.293-5.33,1.9-8v-.009q2.942-12.93,4.965-26.171c.169-1.132.339-2.264.5-3.4.062-.41.125-.82.169-1.23v-.009q1.444-10.229,2.344-20.609,1.391-16.3,1.4-32.972a379.627,379.627,0,0,0-47.617-184.677Z" transform="translate(-197.764 -59.077)" fill="#f2f2f2"/>
        <path id="Path_3" data-name="Path 3" d="M917.165,689.762c22.573-30.5,31.255-73.463,13.7-107.1a174.83,174.83,0,0,1-82.773,86.927c-14.289,7.006-30.912,13.31-37.526,27.784-4.116,9.006-3.332,19.641-.024,28.974s8.936,17.638,14.5,25.826l.293,2.455C860.387,740.094,894.592,720.263,917.165,689.762Z" transform="translate(-197.764 -59.077)" fill="#e6e6e6"/>
        <path id="Path_4" data-name="Path 4" d="M930.112,582.931a149.432,149.432,0,0,1-31.086,86.525A64.35,64.35,0,0,1,884.6,683.544a36.908,36.908,0,0,1-18.452,6.069c-6.131.439-12.453.179-18.371,2.1a22.6,22.6,0,0,0-13.521,12.6c-3.276,7.232-3.759,15.209-3.959,23.027-.223,8.68-.317,17.7-4.411,25.59-.5.956,1.016,1.67,1.512.715,7.123-13.728,2.5-29.782,6.743-44.214,1.981-6.734,6-12.912,12.726-15.61,5.879-2.36,12.4-2.1,18.61-2.488a39.384,39.384,0,0,0,18.263-5.262,59.489,59.489,0,0,0,14.912-13.482,144.975,144.975,0,0,0,22.711-39.209,152.081,152.081,0,0,0,10.413-50.6c.034-1.073-1.632-.921-1.666.145Z" transform="translate(-197.764 -59.077)" fill="#fff"/>
        <path id="Path_5" data-name="Path 5" d="M905.678,661.815a22.42,22.42,0,0,0,28.554-5.242c.678-.836-.589-1.928-1.268-1.092a20.76,20.76,0,0,1-26.571,4.822c-.93-.542-1.64.973-.715,1.512Z" transform="translate(-197.764 -59.077)" fill="#fff"/>
        <path id="Path_6" data-name="Path 6" d="M869.288,689.8a43.212,43.212,0,0,1,3.185-31.33c.493-.958-1.02-1.672-1.512-.715a44.947,44.947,0,0,0-3.248,32.609c.292,1.038,1.865.469,1.575-.563Z" transform="translate(-197.764 -59.077)" fill="#fff"/>
        <path id="Path_7" data-name="Path 7" d="M925.48,617.311a12.691,12.691,0,0,1-8.289-8.735c-.279-1.041-1.852-.471-1.575.563a14.222,14.222,0,0,0,9.149,9.683.864.864,0,0,0,1.114-.4.841.841,0,0,0-.4-1.114Z" transform="translate(-197.764 -59.077)" fill="#fff"/>
        <path id="Path_8" data-name="Path 8" d="M805.205,555.891c.156.655.311,1.31.458,1.976a167.131,167.131,0,0,1,3.973,26.818c.057.7.1,1.405.142,2.1a176.19,176.19,0,0,1-8.4,64.321,171.1,171.1,0,0,1-9.933,24.025c-5.408,10.7-12.123,21.862-13.637,33.381a29.353,29.353,0,0,0-.29,3.621l44.805,42.658c.15.046.292.1.443.149l1.711,1.785c.23-.385.46-.79.69-1.175.134-.223.259-.455.393-.678.086-.152.172-.3.259-.436.029-.05.057-.1.077-.141.087-.132.153-.264.23-.385q1.939-3.387,3.836-6.813c.01-.01.01-.01.01-.03,9.6-17.428,17.82-35.81,22.994-54.855.155-.573.321-1.156.456-1.748a163.269,163.269,0,0,0,4.717-26.223,144.359,144.359,0,0,0,.62-14.591,120.025,120.025,0,0,0-6.239-37.006c-7.992-23.785-23.5-44.749-45.61-55.917C806.336,556.443,805.78,556.167,805.205,555.891Z" transform="translate(-197.764 -59.077)" fill="#e6e6e6"/>
        <path id="Path_9" data-name="Path 9" d="M804.764,556.556a149.432,149.432,0,0,1,27.274,87.8A64.351,64.351,0,0,1,829,664.29a36.909,36.909,0,0,1-11.08,15.955c-4.631,4.042-9.835,7.64-13.4,12.738a22.6,22.6,0,0,0-3.21,18.2c1.738,7.747,6.156,14.406,10.7,20.769,5.048,7.065,10.4,14.323,11.885,23.088.18,1.062,1.817.721,1.638-.339-2.578-15.25-15.936-25.283-21.236-39.362-2.473-6.569-2.981-13.924.762-20.126,3.273-5.424,8.637-9.139,13.361-13.191a39.384,39.384,0,0,0,11.414-15.2,59.49,59.49,0,0,0,3.79-19.742,144.975,144.975,0,0,0-5.474-44.98,152.081,152.081,0,0,0-22.148-46.667c-.619-.877-1.858.248-1.243,1.119Z" transform="translate(-197.764 -59.077)" fill="#fff"/>
        <path id="Path_10" data-name="Path 10" d="M832.749,634.251a22.42,22.42,0,0,0,19.643-21.377c.038-1.075-1.631-1.185-1.669-.108a20.76,20.76,0,0,1-18.313,19.847c-1.069.127-.723,1.764.339,1.638Z" transform="translate(-197.764 -59.077)" fill="#fff"/>
        <path id="Path_11" data-name="Path 11" d="M820.542,678.5a43.212,43.212,0,0,1-16.32-26.933c-.183-1.061-1.821-.721-1.638.339A44.947,44.947,0,0,0,819.624,679.9c.858.653,1.772-.749.918-1.4Z" transform="translate(-197.764 -59.077)" fill="#fff"/>
        <path id="Path_12" data-name="Path 12" d="M821.765,586.795a12.691,12.691,0,0,1-11.877-1.984c-.85-.663-1.762.739-.918,1.4a14.221,14.221,0,0,0,13.135,2.224.864.864,0,0,0,.649-.988.84.84,0,0,0-.988-.649Z" transform="translate(-197.764 -59.077)" fill="#fff"/>
        <path id="Path_13" data-name="Path 13" d="M215.568,518.935c-20.02-32.234-25.181-75.76-4.946-107.86a174.83,174.83,0,0,0,75.435,93.366c13.673,8.144,29.728,15.778,35.144,30.742,3.37,9.311,1.725,19.847-2.331,28.88s-10.34,16.853-16.554,24.562l-.492,2.423C268.068,573.715,235.588,551.169,215.568,518.935Z" transform="translate(-197.764 -59.077)" fill="#e6e6e6"/>
        <path id="Path_14" data-name="Path 14" d="M211.346,411.4A149.432,149.432,0,0,0,235.3,500.17a64.352,64.352,0,0,0,13.231,15.214,36.908,36.908,0,0,0,17.9,7.548c6.075.936,12.4,1.19,18.139,3.587a22.6,22.6,0,0,1,12.452,13.657c2.678,7.474,2.51,15.464,2.075,23.272-.483,8.669-1.123,17.667,2.317,25.864.417.993-1.149,1.582-1.565.59-5.984-14.262-.069-29.886-3.128-44.615-1.427-6.873-4.934-13.357-11.415-16.593-5.668-2.83-12.187-3.1-18.346-3.992a39.384,39.384,0,0,1-17.775-6.728,59.492,59.492,0,0,1-13.767-14.649A144.976,144.976,0,0,1,215.964,462.4a152.082,152.082,0,0,1-6.267-51.275c.053-1.072,1.7-.785,1.649.28Z" transform="translate(-197.764 -59.077)" fill="#fff"/>
        <path id="Path_15" data-name="Path 15" d="M229.288,492.014a22.42,22.42,0,0,1-28.034-7.545c-.608-.888.744-1.874,1.352-.985a20.76,20.76,0,0,0,26.091,6.965c.971-.464,1.555,1.1.59,1.565Z" transform="translate(-197.764 -59.077)" fill="#fff"/>
        <path id="Path_16" data-name="Path 16" d="M263.284,522.863a43.212,43.212,0,0,0-.628-31.485c-.413-.995,1.152-1.583,1.565-.59a44.947,44.947,0,0,1,.587,32.765c-.376,1.011-1.9.316-1.524-.689Z" transform="translate(-197.764 -59.077)" fill="#fff"/>
        <path id="Path_17" data-name="Path 17" d="M213.169,446.048a12.691,12.691,0,0,0,8.972-8.032c.363-1.015,1.884-.319,1.524.689a14.221,14.221,0,0,1-9.905,8.908.864.864,0,0,1-1.077-.487.84.84,0,0,1,.487-1.077Z" transform="translate(-197.764 -59.077)" fill="#fff"/>
        <path id="Path_18" data-name="Path 18" d="M338.037,394.606c-.208.64-.417,1.28-.617,1.932a167.131,167.131,0,0,0-6.139,26.406c-.114.691-.218,1.392-.312,2.085a176.19,176.19,0,0,0,3.15,64.791,171.1,171.1,0,0,0,7.948,24.753c4.521,11.1,10.306,22.775,10.879,34.378a29.352,29.352,0,0,1,0,3.633L304.816,591.46c-.154.033-.3.078-.453.112l-1.85,1.64c-.2-.4-.394-.825-.592-1.227-.116-.233-.221-.475-.336-.708-.074-.158-.147-.317-.223-.455-.025-.053-.049-.106-.065-.147-.076-.139-.131-.275-.2-.4q-1.657-3.533-3.27-7.1c-.009-.011-.009-.011-.007-.031-8.147-18.15-14.851-37.139-18.459-56.543-.108-.584-.226-1.178-.313-1.78a163.268,163.268,0,0,1-2.571-26.52,144.347,144.347,0,0,1,.568-14.594,120.027,120.027,0,0,1,9.226-36.376c9.9-23.056,27.061-42.691,50-52.025C336.864,395.064,337.441,394.833,338.037,394.606Z" transform="translate(-197.764 -59.077)" fill="#e6e6e6"/>
        <path id="Path_19" data-name="Path 19" d="M338.422,395.3A149.432,149.432,0,0,0,304.1,480.6a64.351,64.351,0,0,0,1.4,20.113,36.909,36.909,0,0,0,9.746,16.8c4.287,4.405,9.182,8.414,12.323,13.785a22.6,22.6,0,0,1,1.72,18.4c-2.362,7.58-7.306,13.859-12.355,19.831-5.606,6.631-11.533,13.43-13.722,22.045-.265,1.044-1.87.571-1.6-.471,3.809-14.99,17.938-23.9,24.364-37.506,3-6.347,4.1-13.635.876-20.121-2.822-5.672-7.866-9.811-12.245-14.233a39.384,39.384,0,0,1-10.142-16.074,59.491,59.491,0,0,1-2.173-19.985,144.973,144.973,0,0,1,9.111-44.386,152.082,152.082,0,0,1,25.867-44.713c.688-.824,1.831.4,1.148,1.217Z" transform="translate(-197.764 -59.077)" fill="#fff"/>
        <path id="Path_20" data-name="Path 20" d="M304.215,470.468a22.42,22.42,0,0,1-17.841-22.9.837.837,0,0,1,1.673.028,20.76,20.76,0,0,0,16.639,21.27C305.741,469.077,305.264,470.681,304.215,470.468Z" transform="translate(-197.764 -59.077)" fill="#fff"/>
        <path id="Path_21" data-name="Path 21" d="M312.786,515.567a43.212,43.212,0,0,0,18.455-25.517c.269-1.043,1.873-.571,1.6.471a44.947,44.947,0,0,1-19.258,26.514c-.908.581-1.705-.89-.8-1.468Z" transform="translate(-197.764 -59.077)" fill="#fff"/>
        <path id="Path_22" data-name="Path 22" d="M319.021,424.062a12.69,12.69,0,0,0,12-1.012c.9-.592,1.7.88.8,1.468a14.221,14.221,0,0,1-13.272,1.149.864.864,0,0,1-.567-1.038.84.84,0,0,1,1.038-.567Z" transform="translate(-197.764 -59.077)" fill="#fff"/>
        <circle id="Ellipse_1" data-name="Ellipse 1" cx="52.985" cy="52.985" r="52.985" transform="translate(336.454 24.848)" fill="#ff6584"/>
        <path id="Path_23" data-name="Path 23" d="M749.432,134.145a194.721,194.721,0,0,0-15.1-14.333c-10.322-8.753-21.75-16.2-34.488-20.885a79.528,79.528,0,0,0-14.8-3.9c-.606-.1-1.2-.2-1.81-.276a.671.671,0,0,0-.134,0,1.61,1.61,0,0,0-.285-.053c-1.239-.16-2.478-.285-3.726-.374a64.567,64.567,0,0,0-20,1.8,66.521,66.521,0,0,0-11.053,3.851,98.942,98.942,0,0,0-10.367,5.874,62.3,62.3,0,0,1-5.527,2.986,68.93,68.93,0,0,1-17.382,5.562,78.042,78.042,0,0,1-12.3,1.212c-3.583.071-6.962.2-10.358,1.489a24.822,24.822,0,0,0-15.127,16.384,1.6,1.6,0,0,0,.713,1.756c.918.66,1.809,1.408,2.781,2a8.727,8.727,0,0,0,2.71.74q2.3.481,4.608.936,8.49,1.685,17.052,2.986,17.222,2.607,34.639,3.672a1.732,1.732,0,0,0,.214.018,389.847,389.847,0,0,0,39.4.383c1.988-.08,3.967-.178,5.954-.294q12.421-.7,24.78-2.193,11.432-1.391,22.775-3.45,8.1-1.471,16.143-3.28a1.579,1.579,0,0,0,.686-2.612Z" transform="translate(-197.764 -59.077)" fill="#e6e6e6"/>
        <path id="Path_24" data-name="Path 24" d="M639.3,204.8a173.066,173.066,0,0,0-25.235-22.213c-3.022-2.122-6.133-4.118-9.333-5.946a98.9,98.9,0,0,0-12.194-5.963c-.936-.383-1.881-.749-2.826-1.1a78.986,78.986,0,0,0-16.606-4.172c-.045-.009-.089,0-.134-.009l-.276-.053a61.349,61.349,0,0,0-8.29-.508c-1.988,0-3.984.107-5.963.3a65.943,65.943,0,0,0-9.484,1.64c-1.542.383-3.075.829-4.582,1.337a65.45,65.45,0,0,0-6.462,2.514c-.036.018-.062.027-.1.045a96.286,96.286,0,0,0-10.269,5.83c-.071.045-.152.089-.223.134a64.773,64.773,0,0,1-11.838,5.544,72.094,72.094,0,0,1-10.857,2.87,76.883,76.883,0,0,1-12.3,1.2c-3.583.071-6.962.2-10.349,1.5a24.835,24.835,0,0,0-15.136,16.384,1.607,1.607,0,0,0,.713,1.756c.918.66,1.818,1.4,2.781,1.988a8.552,8.552,0,0,0,2.71.74c1.533.321,3.066.642,4.608.945q8.49,1.685,17.061,2.977,11.753,1.778,23.6,2.844,5.616.521,11.24.856,14.427.869,28.881.677,2.982-.04,5.963-.134,17.7-.521,35.3-2.656a388.25,388.25,0,0,0,38.909-6.73,1.572,1.572,0,0,0,.686-2.6Z" transform="translate(-197.764 -59.077)" fill="#e6e6e6"/>
        <path id="Path_25" data-name="Path 25" d="M507.232,62.595l46.679,645.056-93.358,8.286V70.8C471.677,62.112,487.646,60.752,507.232,62.595Z" transform="translate(-197.764 -59.077)" fill="#ccc"/>
        <path id="Path_26" data-name="Path 26" d="M737.647,62.595,690.968,707.651l93.358,8.286V70.8C773.2,62.112,757.232,60.752,737.647,62.595Z" transform="translate(-197.764 -59.077)" fill="#ccc"/>
        <path id="Path_27" data-name="Path 27" d="M786.522,71.083c-2.9-7.1-9.056-12.006-16.179-12.006H473.54c-9.9,0-17.952,9.5-17.952,21.192V721.4a22.909,22.909,0,0,0,6.186,15.994,17.009,17.009,0,0,0,7.773,4.661,14.838,14.838,0,0,0,3.993.537h296.8a14.841,14.841,0,0,0,3.993-.537c7.987-2.147,13.959-10.586,13.959-20.656V80.269a24.343,24.343,0,0,0-1.774-9.186ZM782.341,721.4c0,7.808-5.384,14.163-12,14.163H473.54c-5.482,0-10.126-4.367-11.543-10.312a16.449,16.449,0,0,1-.455-3.851V80.269c0-7.808,5.384-14.153,12-14.153h296.8a10.179,10.179,0,0,1,3.566.642c4.876,1.789,8.432,7.166,8.432,13.511Z" transform="translate(-197.764 -59.077)" fill="#ccc"/>
        <rect id="Rectangle_4" data-name="Rectangle 4" width="326.752" height="5.959" transform="translate(260.803 194.882)" fill="#ccc"/>
        <rect id="Rectangle_5" data-name="Rectangle 5" width="326.752" height="5.959" transform="translate(260.803 71.871)" fill="#ccc"/>
        <rect id="Rectangle_6" data-name="Rectangle 6" width="326.752" height="5.959" transform="translate(260.803 294.199)" fill="#ccc"/>
        <rect id="Rectangle_7" data-name="Rectangle 7" width="5.959" height="375.944" transform="translate(360.878 2.674)" fill="#ccc"/>
        <rect id="Rectangle_8" data-name="Rectangle 8" width="5.959" height="375.944" transform="translate(481.521 2.674)" fill="#ccc"/>
        <path id="Path_28" data-name="Path 28" d="M822.561,705.353H431.253a26.845,26.845,0,0,0-26.813,26.813,26.544,26.544,0,0,0,1.934,9.975,26.815,26.815,0,0,0,24.878,16.847H822.561a26.815,26.815,0,0,0,23.14-13.282,25.9,25.9,0,0,0,1.747-3.566,26.542,26.542,0,0,0,1.934-9.974,26.852,26.852,0,0,0-26.822-26.813Z" transform="translate(-197.764 -59.077)" fill="#ccc"/>
        <rect id="Rectangle_9" data-name="Rectangle 9" width="324.766" height="19.863" transform="translate(262.789 364.714)" fill="#ccc"/>
        <path id="Path_29" data-name="Path 29" d="M422.193,358.755h5.959a10.925,10.925,0,0,1,10.925,10.925H411.268a10.925,10.925,0,0,1,10.925-10.925Z" fill="#ccc"/>
        <circle id="ab6171fa-7d69-4734-b81c-8dff60f9761b" cx="61.548" cy="61.548" r="61.548" transform="translate(369.353 297.637)" fill="#ffb8b8"/>
        <path id="bf427902-b9bf-4946-b5d7-5c1c7e04535e" d="M560.006,359.053c.465-7.068,5.139-14.3,19.99-18.08,0,0,25.486-32.59,60.118-15.5,0,0,16.79-2.889,29.239,14.531,0,0,12.343-7.28,17.551,5.624,0,0,14.477,26.32,9.147,53.167s-8.058,30.2-8.058,30.2,6.793-55.532-32.335-51.681-70.631-9.91-79.492,20.218c-7.358,25.017-6.431,38.009-6.431,38.009s-24.6-24.956-16.239-44.608C557.776,380.88,559.289,369.953,560.006,359.053Z" transform="translate(-197.764 -59.077)" fill="#2f2e41"/>
        <path id="Path_30" data-name="Path 30" d="M461.292,754.62H801.73c-2.275-25.969-3.762-125.235-3.762-131.769,0-28.816-23.579-60.263-23.579-60.263l-8.44-4.665-70.482-21.99-18.24-23.693a20.283,20.283,0,0,0-16.245-7.932l-57.619.432a20.344,20.344,0,0,0-13.664,5.415l-35.679,33.1-52.331,24.99-.089-.089-.547.407-7.766,5.593-5,3.61s-13.105,15.724-23.579,62.881C463.135,647.739,462.029,739.557,461.292,754.62Z" transform="translate(-197.764 -59.077)" fill="#6c63ff"/>
        <path id="Path_31" data-name="Path 31" d="M880.527,742.14c-.82.749-1.649,1.489-2.478,2.228q-4.707,4.185-9.547,8.227-7.314,6.1-14.931,11.829H395.277q-14-10.509-26.964-22.284Z" transform="translate(-197.764 -59.077)" fill="#ccc"/>
        <path id="Path_32" data-name="Path 32" d="M514.774,688.412H346.3l3.565-16.936h161.34Z" fill="#2f2e41"/>
        <path id="Path_33" data-name="Path 33" d="M864.955,674.4H821.117a6.771,6.771,0,0,0-5.2,2.407,9.824,9.824,0,0,0-1.854-.178,10.4,10.4,0,0,0,0,20.8,10.28,10.28,0,0,0,4.526-1.051l.733,8.984,2.906,35.513a6.477,6.477,0,0,0,.553,1.275,6.834,6.834,0,0,0,6,3.566h28.506a6.859,6.859,0,0,0,6.008-3.566,7.036,7.036,0,0,0,.544-1.275l7.666-57.6a6.854,6.854,0,0,0-6.551-8.869Zm-50.889,20.056a7.43,7.43,0,0,1,0-14.859c.134,0,.258.036.392.045a6.807,6.807,0,0,0,.107,3.628l3.138,10.2a7.308,7.308,0,0,1-3.637.989Z" transform="translate(-197.764 -59.077)" fill="#3f3d56"/>
        <path id="Path_34" data-name="Path 34" d="M765.94,485.931H488.435a9.008,9.008,0,0,0-8.994,8.994V682.186a9,9,0,0,0,8.994,8.994H765.94a9,9,0,0,0,8.994-8.994V494.925a9.008,9.008,0,0,0-8.994-8.994Z" transform="translate(-197.764 -59.077)" fill="#3f3d56"/>
        <path id="Path_35" data-name="Path 35" d="M658.439,635.977H593.52a3.464,3.464,0,0,0-3.459,3.468V742h71.846V639.444a3.466,3.466,0,0,0-3.468-3.467ZM626.2,694.247a7.7,7.7,0,0,1-7.666-7.666V674.752a7.666,7.666,0,1,1,15.332,0v11.829a7.7,7.7,0,0,1-7.666,7.666Z" transform="translate(-197.764 -59.077)" fill="#2f2e41"/>
        <path id="Path_36" data-name="Path 36" d="M589.839,738.717v9.894a1.938,1.938,0,0,0,1.934,1.934H660.2a1.944,1.944,0,0,0,1.934-1.934v-9.894Z" transform="translate(-197.764 -59.077)" fill="#3f3d56"/>
        <circle id="Ellipse_2" data-name="Ellipse 2" cx="4.381" cy="4.381" r="4.381" transform="translate(557.894 612.39)" fill="#2f2e41"/>
        <path id="Path_37" data-name="Path 37" d="M523.466,669.493a1.533,1.533,0,0,0-1.533,1.533v7.889a1.533,1.533,0,1,0,3.066,0v-7.889a1.533,1.533,0,0,0-1.533-1.533Z" transform="translate(-197.764 -59.077)" fill="#2f2e41"/>
        <path id="Path_38" data-name="Path 38" d="M531.792,669.493a1.533,1.533,0,0,0-1.533,1.533v7.889a1.533,1.533,0,0,0,3.066,0v-7.889a1.533,1.533,0,0,0-1.533-1.533Z" transform="translate(-197.764 -59.077)" fill="#2f2e41"/>
        <path id="Path_39" data-name="Path 39" d="M540.117,669.493a1.533,1.533,0,0,0-1.533,1.533v7.889a1.533,1.533,0,0,0,3.066,0v-7.889a1.533,1.533,0,0,0-1.533-1.533Z" transform="translate(-197.764 -59.077)" fill="#2f2e41"/>
        <path id="Path_40" data-name="Path 40" d="M548.443,669.493a1.533,1.533,0,0,0-1.533,1.533v7.889a1.533,1.533,0,1,0,3.066,0v-7.889a1.533,1.533,0,0,0-1.533-1.533Z" transform="translate(-197.764 -59.077)" fill="#2f2e41"/>
        <circle id="Ellipse_3" data-name="Ellipse 3" cx="23.176" cy="23.176" r="23.176" transform="translate(334.146 637.603)" fill="#ffb8b8"/>
        <circle id="Ellipse_4" data-name="Ellipse 4" cx="23.176" cy="23.176" r="23.176" transform="translate(496.055 642.06)" fill="#ffb8b8"/>
        <path id="Path_41" data-name="Path 41" d="M956.212,444.572c-2.29-3.788-5-7.832-9.254-9.069-4.922-1.432-9.978,1.413-14.266,4.221a415.747,415.747,0,0,0-37,27.259l.013.147c9.2-.635,16.84,23.835,26.042,23.2,6.649-.458,15.091-26.084,20.967-29.229,2.23-1.194,4.4-2.788,6.93-2.9,3.139-.138,5.876,2.054,8.027,4.345,12.723,13.548,16.405,34.267,30.679,46.171a453.009,453.009,0,0,0-32.141-64.145Z" transform="translate(-197.764 -59.077)" fill="#3f3d56"/>
        <path id="Path_42" data-name="Path 42" d="M980.7,477.48q10.068,18.184,21.357,35.646v.009c-.045.41-.107.82-.169,1.23q-1.364-2.086-2.7-4.19-10.135-15.9-19.263-32.4-4.332-7.849-8.45-15.822-3.182-6.177-6.231-12.426c-.579-1.194-1.141-2.389-1.7-3.592-1.319-2.817-2.621-5.651-4.011-8.432-1.587-3.173-3.521-6.489-6.436-8.62a8.78,8.78,0,0,0-4.573-1.765,12.771,12.771,0,0,0-6.623,1.9,213.144,213.144,0,0,0-41.922,28.908,218.448,218.448,0,0,0-34.051,37.8c-.3.428-1.016.018-.713-.419,1.2-1.694,2.416-3.36,3.664-5.018A219.485,219.485,0,0,1,924.9,438.036q5.442-3.53,11.1-6.73c1.9-1.079,3.806-2.139,5.749-3.138a14.02,14.02,0,0,1,6.1-1.89c7.4-.116,11.231,8.263,13.861,13.9q1.23,2.661,2.5,5.313,4.8,10.028,9.975,19.9Q977.367,471.468,980.7,477.48Z" transform="translate(-197.764 -59.077)" fill="#3f3d56"/>
        <path id="Path_43" data-name="Path 43" d="M899.25,453.785c-.43-.479-.857-.958-1.289-1.437-3.411-3.772-7.071-7.5-11.755-9.663a17.055,17.055,0,0,0-7.145-1.656,20.389,20.389,0,0,0-7.419,1.618c-1.117.446-2.209.953-3.285,1.492-1.229.619-2.436,1.278-3.638,1.944q-3.384,1.872-6.68,3.909-6.558,4.053-12.7,8.724-3.187,2.423-6.242,5-2.842,2.4-5.568,4.925c-.389.359-.969-.222-.58-.58.479-.446.964-.89,1.448-1.328q2.053-1.856,4.172-3.641,3.864-3.26,7.928-6.269,6.32-4.681,13.074-8.727,3.375-2.02,6.844-3.871c.7-.372,1.4-.736,2.119-1.081a33.773,33.773,0,0,1,5.037-2.05,17.919,17.919,0,0,1,7.608-.747,19.806,19.806,0,0,1,7.019,2.428c4.6,2.571,8.166,6.545,11.637,10.424C900.18,453.6,899.6,454.179,899.25,453.785Z" transform="translate(-197.764 -59.077)" fill="#3f3d56"/>
        <path id="Path_44" data-name="Path 44" d="M865.6,471.935a5.3,5.3,0,0,1-3.285-.941c-2.545-1.928-2.478-6.559.2-14.159a15.983,15.983,0,0,1,8.652-9.3,14.811,14.811,0,0,1,11.928-.071q.494.214.973.46h0a35.126,35.126,0,0,1,6.1,4.328,40.3,40.3,0,0,0,5.08,3.752l.6.35-.566.4C880.839,466.92,871.049,471.935,865.6,471.935Z" transform="translate(-197.764 -59.077)" fill="#3f3d56"/>
        <path id="Path_45" data-name="Path 45" d="M921.121,411.438a20.505,20.505,0,0,1-20.113-16.528,20.5,20.5,0,1,0,24.183,16.123,20.587,20.587,0,0,1-4.069.405Z" transform="translate(-197.764 -59.077)" fill="#3f3d56"/>
        <circle id="Ellipse_5" data-name="Ellipse 5" cx="30.594" cy="30.594" r="30.594" transform="translate(143.96 324.154)" fill="#3f3d56" opacity="0.74"/>
        <circle id="Ellipse_6" data-name="Ellipse 6" cx="30.594" cy="30.594" r="30.594" transform="translate(174.553 324.154)" fill="#6c63ff" opacity="0.74"/>
        <circle id="Ellipse_7" data-name="Ellipse 7" cx="30.594" cy="30.594" r="30.594" transform="translate(159.516 299.77)" fill="#ff6584" opacity="0.74"/>
        <rect id="Rectangle_10" data-name="Rectangle 10" width="82.372" height="1.783" transform="translate(191.526 346.285) rotate(-17.441)" fill="#3f3d56"/>
        <circle id="Ellipse_8" data-name="Ellipse 8" cx="3.566" cy="3.566" r="3.566" transform="translate(267.045 318.596)" fill="#3f3d56"/>
        <path id="Path_46" data-name="Path 46" d="M978.544,541.677c5.224,3.681,10.242,7.434,15.982,10.269-.107.437-.223.882-.33,1.319-.7-.33-1.391-.677-2.077-1.034-5.821-3.049-10.83-7.193-16.294-10.795a35.159,35.159,0,0,0-8.789-4.4,29,29,0,0,0-10.046-1.177c-14.146.7-26.269,9.137-39.417,13.389-6.436,2.086-13.282,3.2-19.994,1.89s-12.675-4.876-18.6-8.1c-5.847-3.191-12.221-6.4-19.049-6.4-5.562.009-11.41,2.237-14.387,7.158a.668.668,0,0,1-1.15-.677,14.029,14.029,0,0,1,2.433-3.04c3.886-3.681,9.6-5.134,14.85-4.707,6.792.553,12.987,3.762,18.862,6.988,6.231,3.423,12.613,7.1,19.815,7.853,7.113.749,14.155-1.114,20.751-3.619,12.773-4.858,25.378-12.952,39.586-12.052C967.392,534.965,973.133,537.871,978.544,541.677Z" transform="translate(-197.764 -59.077)" fill="#3f3d56"/>
        <path id="Path_47" data-name="Path 47" d="M419.433,283.881v1.81a9.387,9.387,0,0,0-1.818-.178h-9.324v20.021a11.184,11.184,0,0,1-11.178,11.178H383.332v3.084a9.341,9.341,0,0,0,.722,3.6h-1.908a10.981,10.981,0,0,1-.6-3.6v-3.084h-7.577v-1.783h7.577V294.907a11.184,11.184,0,0,1,11.178-11.178h13.781v-3.12h1.783v3.12h9.324A11.127,11.127,0,0,1,419.433,283.881Z" transform="translate(-197.764 -59.077)" fill="#6c63ff"/>
        <path id="Path_48" data-name="Path 48" d="M397.113,269.467H372.226a11.184,11.184,0,0,0-11.178,11.178v24.887a11.184,11.184,0,0,0,11.178,11.178h24.887a11.184,11.184,0,0,0,11.178-11.178V280.609A11.183,11.183,0,0,0,397.113,269.467Zm9.4,36.065a9.408,9.408,0,0,1-9.4,9.4H372.226a9.408,9.408,0,0,1-9.4-9.4V280.645a9.408,9.408,0,0,1,9.4-9.4h24.887a9.406,9.406,0,0,1,9.4,9.359Z" transform="translate(-197.764 -59.077)" fill="#3f3d56"/>
        <path id="Path_49" data-name="Path 49" d="M381.55,314.928v1.783h1.783v-1.783Zm0,0v1.783h1.783v-1.783Zm37.883-31.047a11.129,11.129,0,0,0-1.818-.152H392.728a11.184,11.184,0,0,0-11.178,11.178v24.887a10.98,10.98,0,0,0,.6,3.6,11.182,11.182,0,0,0,10.581,7.577h24.887a11.184,11.184,0,0,0,11.178-11.178V294.907a11.178,11.178,0,0,0-9.36-11.026Zm7.577,35.914a9.408,9.408,0,0,1-9.4,9.4H392.728a9.408,9.408,0,0,1-9.4-9.4V294.907a9.408,9.408,0,0,1,9.4-9.4h24.887a9.4,9.4,0,0,1,9.4,9.4Zm-45.461-4.867v1.783h1.783v-1.783Z" transform="translate(-197.764 -59.077)" fill="#3f3d56"/>
        <path id="Path_50" data-name="Path 50" d="M363.945,547.3H258.227a2.783,2.783,0,0,0-2.781,2.772v6.266a375.144,375.144,0,0,0,12.649,39.408h95.85a2.769,2.769,0,0,0,2.772-2.772v-42.9a2.775,2.775,0,0,0-2.772-2.772Z" transform="translate(-197.764 -59.077)" fill="#6c63ff"/>
        <path id="Path_51" data-name="Path 51" d="M353.872,609.663H273.737c.954,2.237,1.925,4.457,2.933,6.668h77.2C358.222,616.393,358.178,609.6,353.872,609.663Z" transform="translate(-197.764 -59.077)" fill="#e4e4e4"/>
        <path id="Path_52" data-name="Path 52" d="M353.872,624.941H280.69q1.6,3.356,3.3,6.668h69.884C358.222,631.671,358.178,624.888,353.872,624.941Z" transform="translate(-197.764 -59.077)" fill="#e4e4e4"/>
        <path id="Path_53" data-name="Path 53" d="M353.872,640.229H288.489c1.194,2.237,2.425,4.457,3.672,6.668h61.71C358.222,646.959,358.178,640.166,353.872,640.229Z" transform="translate(-197.764 -59.077)" fill="#e4e4e4"/>
        <path id="Path_54" data-name="Path 54" d="M901.94,229.333h-.508a10.206,10.206,0,0,1,4.554,1.077h-2.312a9.4,9.4,0,0,0-9.395,9.395v24.888a9.4,9.4,0,0,0,9.395,9.395h1.474a10.216,10.216,0,0,1-3.716.706h.508a10.3,10.3,0,0,0,10.286-10.286V239.619a10.3,10.3,0,0,0-10.286-10.286Z" transform="translate(-197.764 -59.077)" fill="#3f3d56"/>
        <path id="Path_55" data-name="Path 55" d="M901.94,229.333h-.508a10.206,10.206,0,0,1,4.554,1.077h-2.312a9.4,9.4,0,0,0-9.395,9.395v24.888a9.4,9.4,0,0,0,9.395,9.395h1.474a10.216,10.216,0,0,1-3.716.706h.508a10.3,10.3,0,0,0,10.286-10.286V239.619a10.3,10.3,0,0,0-10.286-10.286Z" transform="translate(-197.764 -59.077)" opacity="0.21"/>
        <path id="Path_56" data-name="Path 56" d="M835.977,229.333h-.508a10.206,10.206,0,0,1,4.554,1.077h-2.312a9.4,9.4,0,0,0-9.395,9.395v24.888a9.4,9.4,0,0,0,9.395,9.395h1.474a10.216,10.216,0,0,1-3.716.706h.508a10.3,10.3,0,0,0,10.286-10.286V239.619a10.3,10.3,0,0,0-10.286-10.286Z" transform="translate(-197.764 -59.077)" fill="#6c63ff"/>
        <path id="Path_57" data-name="Path 57" d="M835.977,229.333h-.508a10.206,10.206,0,0,1,4.554,1.077h-2.312a9.4,9.4,0,0,0-9.395,9.395v24.888a9.4,9.4,0,0,0,9.395,9.395h1.474a10.216,10.216,0,0,1-3.716.706h.508a10.3,10.3,0,0,0,10.286-10.286V239.619a10.3,10.3,0,0,0-10.286-10.286Z" transform="translate(-197.764 -59.077)" opacity="0.21"/>
        <path id="Path_58" data-name="Path 58" d="M837.812,274.165a9.4,9.4,0,0,1-9.395-9.395V239.882a9.4,9.4,0,0,1,9.395-9.395h2.312a10.206,10.206,0,0,0-4.554-1.077H810.681A10.3,10.3,0,0,0,800.4,239.7v24.888a10.3,10.3,0,0,0,10.286,10.286h24.888a10.215,10.215,0,0,0,3.716-.706Z" transform="translate(-197.764 -59.077)" fill="#6c63ff"/>
        <path id="Path_59" data-name="Path 59" d="M903.774,274.165a9.4,9.4,0,0,1-9.395-9.395V239.882a9.4,9.4,0,0,1,9.395-9.395h2.312a10.207,10.207,0,0,0-4.554-1.077H876.643A10.3,10.3,0,0,0,866.357,239.7v24.888a10.3,10.3,0,0,0,10.286,10.286h24.888a10.214,10.214,0,0,0,3.716-.706Z" transform="translate(-197.764 -59.077)" fill="#3f3d56"/>
        <path id="Path_60" data-name="Path 60" d="M933.163,235.6a380.7,380.7,0,0,1,25.021,39.265H942.6a10.3,10.3,0,0,1-10.286-10.286V239.7a10.274,10.274,0,0,1,.846-4.091Z" transform="translate(-197.764 -59.077)" fill="#ff6584"/>
        <path id="Path_61" data-name="Path 61" d="M901.92,287.928,893.2,274.869l-6.373-9.547a3.546,3.546,0,0,0-6.338.918l-2.683,8.629-5.4,17.337a3.553,3.553,0,0,0,5.259,4.074l1.917-1.186a2.661,2.661,0,0,1,4.047,2.023l1.756,19.165a3.558,3.558,0,0,0,3.53,3.227c.107,0,.214-.009.33-.018l2.692-.241a3.545,3.545,0,0,0,3.209-3.86l-1.81-19.789a2.657,2.657,0,0,1,3.762-2.656l.392.178a3.547,3.547,0,0,0,4.43-5.2Z" transform="translate(-197.764 -59.077)" fill="#ccc"/>
    </g>
</svg>
